<?xml version="1.0" standalone="no"?>
<!DOCTYPE svg PUBLIC "-//W3C//DTD SVG 1.1//EN" "http://www.w3.org/Graphics/SVG/1.1/DTD/svg11.dtd" >
<svg xmlns="http://www.w3.org/2000/svg">
<metadata></metadata>
<defs>
<font id="PulsarJSRegular" horiz-adv-x="2048" >
<font-face units-per-em="2048" ascent="1638" descent="-410" />
<missing-glyph horiz-adv-x="500" />
<glyph horiz-adv-x="0" />
<glyph />
<glyph unicode="&#xd;" />
<glyph unicode="#" d="M296 744q160 160 320 318q120 122 242 18q-40 -42 -82 -82q-40 22 -78 -18q-158 -158 -320 -318q-48 -48 0 -98l156 -156q49 -49 98 0l320 320q36 39 16 78q42 40 82 82q8 -8 14 -16q82 -114 -30 -228q-160 -158 -320 -318q-98 -98 -200 -44q-30 14 -60 46l-156 156 q-132 130 -2 260zM736 836q0 30 20 52q214 212 428 428q20 20 50 20t51 -21t21 -51t-20 -50l-428 -428q-22 -20 -52 -21t-50 20t-20 51zM992 1214q-104 120 16 242l318 318q130 130 262 0l188 -190q82 -114 -32 -228l-318 -318q-100 -100 -200 -46q-22 10 -42 30l82 82 q39 -23 78 16l318 318q28 30 25 54t-25 44l-154 156q-50 50 -100 0l-318 -318q-38 -40 -16 -78z" />
<glyph unicode="0" d="M323 1066q-145 -428 259 -826q-182 360 -70 616q110 256 552 206v-378l652 600l-652 572v-368q-596 6 -741 -422z" />
<glyph unicode="1" d="M518 508q20 252 270 324q84 22 168 14q-56 476 -78 952q-2 34 36 42q28 10 58 14q292 -222 460 -538q60 -114 6 -224q-34 -66 -98 -54q-56 208 -214 364q-20 20 -42 34q62 -392 72 -788q4 -112 -70 -196q-176 -206 -430 -132q-148 42 -138 188z" />
<glyph unicode="2" d="M596 316v1394q0 34 26 54q22 26 54 26h658q36 0 58 -26q24 -20 24 -54v-1394q0 -36 -18 -45t-46 13l-284 228q-26 22 -62 22t-66 -22l-282 -228q-26 -22 -44 -13t-18 45z" />
<glyph unicode="3" d="M80 544v1008q0 256 256 256h584v-160h-584q-96 0 -96 -96v-1008q0 -96 96 -96h1328q96 0 96 96v1008q0 96 -96 96h-10v160h10q256 0 256 -256v-1008q0 -256 -256 -256h-1328q-256 0 -256 256zM1000 900v976q0 24 18 38q14 18 38 18h460q24 0 40 -18q18 -14 18 -38v-976 q0 -24 -13 -30t-33 8l-198 160q-18 16 -43 16t-45 -16l-200 -160q-16 -14 -30 -8q-12 6 -12 30z" />
<glyph unicode="4" d="M448 260v884h112v252q2 182 131 311t313 129t314 -130t130 -312v-250h104v-884h-1104zM736 1144h538q0 122 -2 246v6l-4 52q-8 24 -16 50q-12 22 -24 46l-34 40l-38 32q-24 12 -48 26q-24 6 -50 14l-54 6l-54 -6q-26 -8 -50 -14q-24 -14 -48 -26q-18 -16 -38 -32l-34 -40 q-12 -24 -24 -46l-16 -50l-4 -52v-252z" />
<glyph unicode="5" d="M448 260v884h1104v-884h-1104zM560 1200v196q2 182 131 311t312 129t313 -130t130 -312v-68h-172q0 32 -2 64v6q0 26 -6.5 60.5t-34.5 79.5q-39 64 -123 106q-52 20 -92 20q-66 0 -118 -20q-76 -38 -118 -98q-46 -72 -46 -148v-196h-174z" />
<glyph unicode="6" d="M262 464h2q0 -4 2 -4q24 30 235 51t501 21t502 -22t230 -52q4 6 4 12v18h-2q-6 69 -65 182.5t-65 121.5q-67 143 -80 296q-10 76 -8 188q4 222 -146 376q-145 154 -358 158h-26q-215 -4 -360 -158q-70 -74 -108 -169t-37 -207t-8 -196q-16 -149 -81 -288l-54 -104 q-70 -135 -76 -208v-6q-2 -2 -2 -4v-6zM280 356q2 -16 125 -32t263 -20q-2 0 -14 19t-24 61l-8 26q-112 -4 -226 -19t-116 -35zM760 432q2 -8 2 -28t18 -50q0 -26 44 -74t90 -72t114 -24q110 0 190 80q36 40 46 62q7 16 26 66q4 24 4 38h-2q-72 6 -232 6t-250 -4h-50z M1384 304q116 4 230 20t116 32q-2 20 -107 34t-197 18q0 -12 -9 -40t-31 -62z" />
<glyph unicode="7" d="M80 544v1008q0 256 256 256h1328q256 0 256 -256v-1008q0 -256 -256 -256h-1328q-256 0 -256 256zM240 544q0 -96 96 -96h1328q96 0 96 96v502q-18 6 -18 20q0 8 6 14t12 6v466q0 96 -96 96h-1328q-96 0 -96 -96v-466q18 0 18 -18t-18 -22v-502zM302 1066q0 8 6 14t14 6 h60q8 0 14 -6t6 -14t-6 -14t-14 -6h-60q-8 0 -14 6t-6 14zM446 1066q0 8 6 14t14 6h60q8 0 14 -6t6 -14t-6 -14t-14 -6h-60q-8 0 -14 6t-6 14zM532 1404l212 110h164v-428h50q8 0 14 -6t6 -14t-6 -14t-14 -6h-50v-458h-186v458h32q-8 0 -14 6t-6 14t6 14t14 6h-32v252h-2 q-78 -40 -158 -80q-14 72 -30 146zM590 1066q0 8 6 14t14 6h60q8 0 14 -6t6 -14t-6 -14t-14 -6h-60q-8 0 -14 6t-6 14zM816 1046h82q-8 0 -14 6t-6 14t6 14t14 6h-82q6 0 12 -6t6 -14t-6 -14t-12 -6zM964 588v124l92 120q60 76 154 212v2h-24q-8 0 -14 6t-6 14t6 14t14 6h46 q42 79 42 146.5t-31 102.5t-93.5 35t-131.5 -46l-36 142q90 60 185 60q222 0 277 -172q14 -44 14 -102q0 -66 -26 -144q-6 -10 -10 -22h-30q6 0 12 -6t6 -14t-6 -14t-12 -6h12l-4 -6l-10 -20q-28 -50 -70 -104l-134 -162v-2h284v-164h-506zM1022 1066q0 8 6 14t14 6h60 q8 0 14 -6t6 -14t-6 -14t-14 -6h-60q-8 0 -14 6t-6 14zM1248 1046h82q-8 0 -14 6t-6 14t6 14t14 6h-82q6 0 12 -6t6 -14t-6 -14t-12 -6zM1454 1066q0 8 6 14t14 6h60q8 0 14 -6t6 -14t-6 -14t-14 -6h-60q-8 0 -14 6t-6 14zM1598 1066q0 8 6 14t14 6h60q8 0 14 -6t6 -14 t-6 -14t-14 -6h-60q-8 0 -14 6t-6 14z" />
<glyph unicode="8" d="M196 554v434q-4 36 22 70l430 530q6 6 16 6h674q12 0 16 -6l432 -530q22 -34 20 -74v-430q0 -50 -50 -50h-1510q-50 0 -50 50zM360 1034h266l204 -180h340l208 180h264l-330 440h-624z" />
<glyph unicode="9" d="M288 1284l652 572v-368q596 6 741 -422t-259 -828q182 362 70 618q-110 256 -552 206v-378z" />
<glyph unicode="@" d="M284 812l652 -572v368q596 -6 741 422t-259 826q182 -360 71 -616t-553 -206v378z" />
<glyph unicode="A" d="M200 244v1414q244 114 486 228v-1416q-242 -114 -486 -226zM756 470v1416l488 -252v-1414zM1314 218v1414q242 64 486 128v-1414q-244 -64 -486 -128z" />
<glyph unicode="B" d="M256 1048q0 312 218 532q222 220 532 220t530 -220t220 -532t-220 -532t-530 -220t-532 220q-218 220 -218 532zM360 1047q0 -269 189 -459t457 -190t456 192q190 188 190 457t-189 459t-457 190t-457 -190t-189 -459zM894 1049q0 47 26 74t52 35v412q0 14 10 24t24 10 t24 -10t10 -24v-412q39 -12 66 -52h2l262 76q12 4 25 -2t16 -20q1 -6 1 -12q0 -23 -24 -30l-260 -76l-8 -2q-4 -40 -36 -72t-78 -32t-79 33t-33 80z" />
<glyph unicode="C" d="M40 868v514q0 150 109 258t261 108h1180q152 0 261 -108t109 -258v-514q0 -150 -109 -258t-261 -108h-686q-204 -168 -408 -334q-24 -20 -44 -20q-9 0 -16 4q-26 12 -26 56v294q-152 0 -261 108t-109 258z" />
<glyph unicode="D" d="M140 1180v356q0 64 38 116l16 20h2q56 56 134 56h798q76 0 132 -56q56 -58 56 -136v-356q0 -80 -56 -136t-132 -56h-486l-252 -210v208l-60 2q-78 0 -134 56q-10 8 -18 20q-38 50 -38 116zM600 704v92q44 34 86 70h442q126 0 216 92q2 0 2 2q92 90 92 220v132h210 q102 0 177 -75t75 -177v-356q0 -104 -75 -179t-177 -75v-204q0 -28 -17 -36q-5 -2 -11 -2q-13 0 -30 12l-276 230h-464q-100 0 -175 75t-75 179z" />
<glyph unicode="E" d="M20 48q24 600 506 600h902q484 0 512 -600h-1920zM470 1328q0 216 154 368t370 152t370 -152t154 -368t-154 -370t-370 -154t-370 154t-154 370z" />
<glyph unicode="F" d="M100 642q8 288 240 288h426q54 -40 118 -58h-216q-264 0 -348 -230h-220zM288 1321q0 97 69 166t165 69q52 0 94 -20q-58 -94 -58 -214t58 -216q-42 -20 -94 -20q-96 0 -165 69t-69 166zM356 462q10 96 40 166q74 168 272 168h656q194 0 270 -162q32 -72 44 -172h-1282z M634 1322q0 158 106 256q108 110 257 110t255 -107t106 -255q0 -102 -34 -163q-115 -207 -326 -207q-152 0 -258 108q-106 106 -106 258zM1110 872q66 18 124 60q18 4 40 4h426q228 0 240 -288h-268q-88 224 -348 224h-214zM1378 1532q51 34 115 34h7q96 0 165 -68t69 -165 t-68 -167q-70 -68 -166 -68q-62 0 -112 28q44 88 44 201t-54 205z" />
<glyph unicode="G" d="M294 1046q0 302 214 516t516 214t516 -214q54 -54 96 -116l182 106l-86 -488l-468 170q100 58 202 114q-167 234 -442 234q-222 0 -379 -157t-157 -379t158 -376q156 -158 378 -158q268 0 442 232q36 50 56 106l186 -64q-12 -36 -18 -42q-54 -116 -150 -212 q-214 -214 -516 -214t-516 213t-214 515z" />
<glyph unicode="H" d="M316 1458q60 218 256 334v2q133 74 275 74q73 0 149 -20q222 -58 332 -258v2q78 -133 78 -274q0 -72 -20 -146q-38 -136 -130 -236l352 -506q9 -15 9 -35q0 -28 -19 -63q-34 -56 -78 -80q-38 -24 -89 -24h-15q-68 0 -90 40l-260 538q-101 -44 -209 -44q-73 0 -149 20 q-224 60 -340 258q-73 130 -73 268q0 74 21 150zM474 1415q-14 -53 -15 -105q0 -98 53 -190v4q82 -144 238 -185q52 -14 102 -14q100 0 192 55h4q140 80 180 235q13 52 13 102q0 100 -53 193q-80 140 -236 182q-53 14 -104 14q-100 0 -192 -54q-140 -82 -182 -237z" />
<glyph unicode="I" d="M444 1314q0 236 163 396t396 160t397 -166t164 -390q0 -188 -280 -658l-278 -428q-140 192 -282 424q-280 466 -280 662zM680 1336q0 -128 93 -219t222 -91t221 94q92 88 92 216t-92 219t-221 91t-223 -90q-92 -92 -92 -220z" />
<glyph unicode="J" d="M162 1250q14 54 80 64l402 78q18 2 39 17t27 29l194 348q34 66 92 66q38 0 62 -25t34 -45l188 -344q10 -14 31 -29t35 -17l404 -78q62 -10 80 -62q5 -15 5 -30q0 -37 -31 -72l-280 -298q-12 -12 -20 -36t-6 -42l50 -408q1 -9 1 -18q0 -40 -23 -66q-27 -30 -66 -30 q-24 0 -52 12l-370 174q-16 8 -41 8t-41 -8l-374 -174q-24 -12 -57 -12t-60 31q-24 27 -24 70q0 6 1 13l52 408q4 16 -6 40q-8 24 -18 38l-282 298q-31 34 -31 70q0 15 5 30z" />
<glyph unicode="K" d="M194 1302q4 98 41 180t101 142q128 120 297 120h11q20 0 42 -4q124 -16 208 -80q64 -52 100 -132q82 183 306 212q29 3 56 3q148 0 268 -95q152 -123 168 -320q2 -23 2 -47q0 -205 -156 -425q-202 -286 -640 -552q0 2 -3 2t-5 -2q-424 256 -630 536q-166 229 -166 442v20 z" />
<glyph unicode="L" d="M161 373q-14 25 -14 53q0 44 33 98l690 1172q52 90 128 90t126 -90l694 -1172q33 -54 33 -99q0 -28 -13 -52q-34 -63 -138 -63h-1400q-104 0 -139 63zM900 638q0 -42 28 -72q30 -28 71 -28t69 29t28 70t-28 71t-69 30t-70 -29t-29 -71zM922 936q0 -32 22 -54t54 -22 t54 22t22 54v350q0 30 -22 52t-54 22t-54 -22t-22 -52v-350z" />
<glyph unicode="M" d="M200 1047q0 331 234 566t567 235t566 -235t233 -566t-233 -565t-566 -234t-567 234t-234 565zM592 960q0 -16 10 -26t26 -10h212q14 0 25 -11t11 -25v-214q0 -14 10 -26q12 -8 26 -8h178q14 0 25 10t11 24v214q0 14 10 25t24 11h214q14 0 25 10t11 26v176q0 16 -12 24 q-10 12 -24 12h-214q-14 0 -24 10t-10 26v214q0 14 -11 25t-25 11h-178q-14 0 -25 -11t-11 -25v-214q0 -16 -11 -26t-25 -10h-212q-16 0 -26 -10t-10 -26v-176z" />
<glyph unicode="N" d="M200 1048q0 332 235 566t566 234t565 -234t234 -566t-234 -566t-565 -234t-565 236q-236 232 -236 564zM592 960q0 -16 10 -26t26 -10h746q14 0 26 10q8 10 8 26v176q0 16 -8 26q-12 10 -26 10h-746q-16 0 -26 -10t-10 -26v-176z" />
<glyph unicode="O" d="M200 1048q0 332 235 566t567 234t565 -234t233 -566t-234 -564q-232 -236 -564 -236t-566 236q-236 232 -236 564zM664 1288q0 -52 34 -80t84 -28q60 0 103 113t109 113t98 -42t32 -73t-34 -75l-76 -88q-110 -132 -110 -244q0 -56 33 -82t81 -26q72 0 92 72 q28 108 54 136q48 52 124 128q50 64 50 146q0 134 -87 247t-247 113q-90 0 -188 -54q-152 -90 -152 -276zM870 604q0 -52 36 -89t88 -37t90 36q36 38 36 90t-36 88q-38 36 -90 36t-88 -36t-36 -88z" />
<glyph unicode="P" d="M200 1048q0 332 235 566t567 234t565 -234t233 -566t-234 -564q-232 -236 -564 -236t-566 236q-236 232 -236 564zM822 1390q0 -74 52 -126t126 -52t126 52t52 126t-52 126t-126 52t-126 -52t-52 -126zM864 664q6 -84 58 -118q28 -18 68 -18q94 0 120 50t26 258t-44 282 q-30 50 -99 50t-103 -64q-37 -73 -37 -235q0 -89 11 -205z" />
<glyph unicode="Q" d="M153 1129q5 51 44 84q34 29 77 29q6 0 13 -1q51 -5 85 -45l398 -338l860 802q36 38 88 40h6q48 0 83 -32q37 -34 40 -85v-8q0 -46 -33 -81l-960 -1058q-22 -26 -58 -36q-18 -5 -34 -5q-52 0 -96 47l-486 596q-28 35 -28 77q0 7 1 14z" />
<glyph unicode="R" d="M516 942v210q0 16 12 29t30 13h886q18 0 30 -13t12 -29v-210q0 -18 -12 -30t-30 -12h-886q-18 0 -30 12t-12 30z" />
<glyph unicode="S" d="M544 794q0 20 12 32l190 190q14 14 14 32t-12 32l-190 190q-14 12 -14 31t14 31l158 160q12 12 31 12t33 -12l190 -190q12 -14 31 -14t31 14l190 190q14 12 33 12t31 -12l158 -160q14 -12 14 -31t-14 -31l-190 -190q-12 -14 -12 -32t14 -32l190 -190q12 -12 12 -32 t-14 -32l-158 -158q-12 -12 -31 -12t-31 12l-190 190q-14 12 -33 12t-31 -12l-192 -190q-12 -12 -31 -12t-31 12l-158 158q-14 12 -14 32z" />
<glyph unicode="T" d="M460 930v236q0 18 14 32t34 14h280q20 0 34 14t14 34v280q0 20 14 34t32 14h236q18 0 32 -14t14 -34v-280q0 -20 14 -34t34 -14h282q18 0 32 -14t14 -32v-236q0 -18 -14 -32t-32 -14h-282q-20 0 -34 -14t-14 -34v-282q0 -18 -14 -32t-32 -14h-236q-18 0 -32 14t-14 32 v282q0 20 -14 34t-34 14h-280q-20 0 -34 14t-14 32z" />
<glyph unicode="U" d="M512 873q0 13 10 21l458 458q8 10 21 10t21 -10l458 -458q10 -8 10 -21t-10 -21l-110 -110q-8 -10 -20 -10t-22 10l-326 326q-164 -164 -328 -326q-8 -10 -21 -10t-21 10l-110 110q-10 8 -10 21z" />
<glyph unicode="V" d="M512 1222q0 12 8 22l110 110q10 8 22 8t22 -8l326 -328l326 328q10 8 22 8t22 -8l110 -110q8 -10 8 -22t-8 -22l-458 -458q-10 -8 -22 -8t-22 8l-458 458q-8 10 -8 22z" />
<glyph unicode="W" d="M686 1047q0 13 8 21l458 458q10 10 22 10t22 -10l110 -110q8 -8 8 -21t-8 -21l-328 -328l328 -326q8 -10 8 -22t-8 -20l-110 -110q-10 -10 -22 -10t-22 10l-458 458q-8 8 -8 21z" />
<glyph unicode="X" d="M686 701q0 13 8 23q164 164 328 326l-328 326q-8 10 -8 22t8 22l110 108q10 10 22 10t22 -10l458 -456q8 -10 8 -23t-8 -21l-458 -458q-10 -10 -22 -10t-22 10l-110 110q-8 8 -8 21z" />
<glyph unicode="Y" d="M114 985q0 35 16 71l822 822q16 16 58 16t74 -52l788 -788q12 -12 12 -49t-24 -67t-66 -30l-22 2q-22 4 -30 6l-72 72l-92 -720q2 -34 -17 -53t-51 -19h-1016q-45 9 -52 16q-10 10 -20 56l-90 724l-40 -40q-29 -32 -40.5 -36t-43.5 -4t-64 24q-30 26 -30 49zM752 1084 q0 -102 73 -175t175 -73t175 73t73 175t-72 174q-74 72 -176 72t-175 -72t-73 -174zM910 537q0 -37 26 -64t63 -27t65 27t28 64t-28 64t-65 27t-63 -27t-26 -64z" />
<glyph unicode="Z" d="M186 228l248 528l278 -276zM488 814l808 812l278 -278l-808 -814zM1382 1714l144 144q10 10 34 10h8q56 -6 147 -97t99 -151l-10 -36l-144 -150z" />
<glyph unicode="a" d="M80 616q0 -326 322 -326h1190q324 0 324 326v752l-160 -160v-592q0 -166 -164 -166h-1190q-162 0 -162 166v872q0 162 162 162h852l158 160h-1010q-322 0 -322 -322v-872zM388 562l460 148l-200 258zM698 1010l200 -260l756 582l-202 256zM1532 1650l202 -258l134 108 l12 30q0 48 -65 133q-73 95 -133 95q-8 0 -14 -4z" />
<glyph unicode="b" d="M80 544v1008v13q0 109 62 176t181 67h13h1328h13q109 0 176 -62t67 -181v-13v-1008v-14q0 -108 -60 -172q-66 -70 -176 -70h-12h-1336h-13q-109 0 -176 62t-67 181v13zM240 544v-6q0 -38 23 -64t61 -26h6h1340h6q38 0 61 26t23 64v6v1008v6q0 40 -23 65t-66 25h-7h-1328 q-7 1 -14 1q-12 0 -25 -4q-58 -22 -58 -80q0 -6 1 -13v-1008zM360 683v17q2 8 4 12l410 714q13 22 31 22q32 0 43 -18l268 -374l-50 -76q-8 -12 -8 -27t14 -28t29 -13t21 5t20 17l136 210q20 14 24 17t22 3t30 -20l278 -430q8 -8 8 -23t-14 -30q-12 -13 -28 -13h-4h-1190h-3 q-11 0 -25 11q-16 13 -16 24z" />
<glyph unicode="c" d="M36 524v838q0 210 212 210h200l68 194q20 58 108 58h760q88 0 108 -58l68 -194h192q214 0 214 -210v-838q0 -212 -214 -212h-1504q-212 0 -212 212zM472 994q0 -218 154 -371t372 -157q216 4 372 156q146 148 152 354v50q-12 196 -152 338q-156 154 -373 154t-371 -153 t-154 -371zM574 994q0 174 124 298t299 124t294 -117t131 -273v-50q-6 -164 -128 -285t-297 -121t-299 122q-124 128 -124 302z" />
<glyph unicode="d" d="M228 452q-3 23 -3 43q0 155 185 203q80 20 163 20q26 0 51 -2v982q288 106 684 144q180 18 312 18h26l4 -532v-250q0 -334 -4 -422q-2 -68 -64 -135t-151 -96q-42 -14 -83 -14q-45 0 -87 17q-81 32 -125 144q-20 50 -20 93q0 123 164 181q110 40 234 40q-4 109 -4 246.5 t4 303.5q-388 0 -702 -114q-24 -12 -48 -22v-848q-32 -74 -113 -128t-174 -64q-17 -2 -32 -2q-72 0 -127 38q-74 48 -90 156z" />
<glyph unicode="e" d="M82 1281q6 43 40 71q380 286 875 287h3q493 0 878 -283q32 -26 39 -69q1 -9 1 -18q0 -33 -20 -61q-26 -36 -69 -42q-8 -1 -16 -1q-34 0 -63 21q-328 242 -752 242t-746 -246q-29 -21 -63 -21q-8 0 -16 1q-43 6 -70 41q-22 29 -22 63q0 7 1 15zM348 1051q6 43 42 71 q262 200 607 201h3q343 0 608 -199q36 -26 42 -69q1 -8 1 -15q0 -34 -22 -63q-27 -35 -69 -41q-8 -1 -16 -1q-34 0 -64 21q-210 156 -483 156t-479 -158q-32 -22 -67 -22q-7 0 -13 1q-42 5 -69 40q-22 29 -22 63q0 7 1 15zM615 821q5 43 39 69q148 116 342 117h3 q192 0 341 -113q36 -28 41 -70q1 -7 1 -14q0 -34 -20 -66q-30 -32 -70 -40q-7 -1 -13 -1q-38 0 -67 21q-94 72 -215 73h-3q-119 0 -208 -73q-31 -21 -67 -21q-6 0 -12 1q-43 4 -70 39q-23 30 -23 65q0 6 1 13zM836 520q0 68 48 116t116 48t116 -48t48 -116t-48 -114 t-116 -46t-116 46t-48 114z" />
<glyph unicode="f" d="M308 298v1500q0 56 40 96t96 40h740q24 0 36 -18l460 -460q12 -12 12 -32v-1126q0 -55 -40 -95.5t-96 -40.5h-1112q-56 0 -96 42v-2q-40 40 -40 96zM398 298q0 -18 14 -32t32 -14h1112q20 0 34 14t14 32v1082h-292q-72 0 -120 44v2q-52 46 -52 116v302h-696 q-18 0 -32 -14t-14 -32v-1500zM1228 1542q0 -30 24 -51t60 -21h246l-330 330v-258z" />
<glyph unicode="g" d="M282 452v1186l4 30q6 22 24 42h2q28 30 70 30h254v92q0 40 30 70t72 30h586q12 0 20 -8l368 -368q6 -6 6 -16v-896q0 -40 -28 -70h-2q-28 -30 -70 -30h-70v-280q0 -40 -28 -70h-2q-30 -30 -70 -30h-882q-42 0 -72 30q-28 30 -28 70v86h-84q-42 0 -71 30t-29 72zM340 452 q0 -18 12 -32t30 -14h84v1046l4 28q6 24 24 44q30 28 72 28h70v130h-254q-18 0 -29 -11t-13 -25v-1194zM522 264q0 -18 13 -31t31 -13h882q16 0 30 13t14 31v280h-754q-42 0 -72 30t-30 70v852h-70q-18 0 -30 -12v-2q-9 -9 -14 -30v-1188zM694 644q0 -16 13 -30t31 -14h880 q18 0 30 14t12 30v864h-236q-52 0 -90 34q-18 14 -29 36t-11 52v246h-556q-18 0 -31 -13t-13 -31v-1188zM1352 1630q0 -26 20 -46t52 -20h212l-284 286v-220z" />
<glyph unicode="h" d="M92 1288q-3 22 -3 41q0 122 131 145q8 184 194 184h150q220 0 278 -14h2q60 -16 94 -77t96 -87q30 -14 52 -14h526q190 0 194 -188q105 -29 106 -131q0 -18 -4 -39l-80 -528q-20 -132 -192 -140h-1246q-170 8 -190 140zM172 1288l96 -708q14 -92 140 -92h1210 q126 0 140 92q38 264 74 528q2 11 2 22q0 79 -96 92l-36 2h-610q-36 2 -86 18h2q-96 34 -152 112v2q-24 34 -64 44q-68 12 -310 12h-180l-14 -2q-118 0 -118 -95q0 -13 2 -27zM290 1480h184q262 0 334 -14h2q74 -16 114 -78q42 -60 112 -84q36 -14 62 -14h612l28 -2 q-8 110 -126 110h-530q-34 2 -74 18q-80 34 -128 116v2q-20 34 -52 44q-56 12 -264 12h-150q-118 0 -124 -110z" />
<glyph unicode="i" d="M304 552q8 52 32 100q282 280 562 562q-8 70 -8 90q0 180 126 306t318 126t305 -128t113 -304t-113 -304t-315 -128l-114 14q-12 0 -72 -64l-64 -70q-62 -2 -124 -2q-7 -52 -7 -86t7 -50q-16 7 -50.5 7t-87.5 -7q-8 -55 -8 -91q0 -40 10 -57q-16 8 -54.5 8t-99.5 -8 q-4 -30 -4 -66q0 -24 2 -50q-10 -44 -100 -44q-130 0 -200 88q-54 68 -54 158zM1366 1413q0 -49 35 -84t84 -35t83 35t34 84t-34 84t-83 35t-84 -35t-35 -84z" />
<glyph unicode="j" d="M204 1286l88 -20l28 -98l-64 -64l68 -104l84 32l78 -68l-20 -88l114 -52l54 72l100 -14l32 -84l124 18l6 88l92 44l72 -54l94 82l-42 78l56 86l88 -6l36 120l-78 42v102l78 44l-36 120l-88 -6l-56 86l42 78l-94 82l-72 -54l-92 42l-6 90l-124 18l-32 -84l-100 -14l-54 70 l-114 -52l20 -86l-78 -68l-84 32l-68 -106l64 -62l-28 -98l-88 -20v-124zM482 1348q0 112 79 190t190 78t189 -78t78 -190t-78 -190t-189 -78t-190 78t-79 190zM972 568l68 -14l20 -74l-46 -48l50 -80l64 24l58 -50l-14 -66l86 -40l40 54l76 -10l24 -64l94 14l4 66l70 32 l54 -40l72 62l-32 60l40 64l68 -4l28 90l-60 32v78l60 32l-28 90l-68 -4l-40 64l32 60l-72 62l-54 -40l-70 32l-4 66l-94 14l-24 -64l-76 -10l-40 54l-86 -40l14 -66l-58 -50l-64 24l-50 -80l46 -48l-20 -74l-68 -14v-94zM1184 615q0 85 59 144t143 59t143 -59t59 -144 t-59 -144t-143 -59t-143 59t-59 144z" />
<glyph unicode="k" d="M244 992q0 302 210 513t498 217v-762l726 228q26 -92 26 -198q0 -300 -214 -515t-517 -215t-516 215t-213 517zM1076 1120v828q266 -8 484 -168t304 -416z" />
<glyph unicode="l" d="M336 1578q0 -16 11 -27t27 -11h1216q16 0 27 11t11 27v76q0 16 -11 27t-27 11h-330v176q0 26 -20 45t-46 19h-422q-26 0 -46 -19t-20 -45v-176h-332q-16 0 -27 -11t-11 -27v-76zM374 1478l106 -1124q4 -38 34 -66t64 -28h812q36 0 66 28q28 28 32 66l104 1124h-1218z M602 1186v8q0 42 42 42h54q46 0 46 -50l28 -716q2 -40 -38 -40h-46q-38 0 -40 40zM838 1692v108h290v-108h-290zM912 1186q-2 50 42 50h54q46 0 46 -50l-10 -716q0 -40 -38 -40h-46q-40 0 -40 40zM1194 470l24 716q2 50 46 50h56q40 0 40 -42v-8l-42 -716q-4 -40 -44 -40 h-44q-36 0 -36 33v7z" />
<glyph unicode="m" d="M270 1048q0 302 214 515t516 213t515 -213t213 -515t-212 -516q-214 -212 -516 -212t-516 213t-214 515zM466 1048q0 -220 157 -377t377 -157t376 157t156 377t-156 376t-376 156t-377 -156t-157 -376zM591 1050q0 167 119 284q0 2 2 2q118 120 287 120t287 -120 q2 0 2 -2q120 -118 120 -287t-120 -288t-289 -119t-288 119q-120 120 -120 291zM788 1047q0 -87 62 -149t149 -62t149 62t62 149t-62 147v2q-62 62 -149 62t-149 -62t-62 -149zM894 1048q0 44 30 74q32 30 76 30t75 -30t31 -74t-31 -75t-75 -31t-76 30q-30 32 -30 76z" />
<glyph unicode="n" d="M300 426v272q0 16 12 32q14 14 34 14h274q16 0 32 -14q14 -16 14 -32v-272q0 -18 -14 -34q-16 -14 -32 -14h-274q-20 0 -34 14q-12 16 -12 34zM300 912v274q0 16 12 32q14 12 34 12h274q16 0 32 -12q14 -16 14 -32v-274q0 -18 -15 -32t-31 -14h-274q-20 0 -34 14 q-12 14 -12 32zM300 1400v272q0 16 12 32q14 14 34 14h274q16 0 32 -14q14 -16 14 -32v-272q0 -18 -14 -34q-16 -14 -32 -14h-274q-20 0 -34 14q-12 16 -12 34zM788 518v88q0 20 13 33t31 13h824q18 0 31 -13t13 -33v-88q0 -20 -13 -34t-31 -14h-824q-18 0 -31 14t-13 34z M788 1004v90q0 18 13 32t31 14h824q18 0 31 -14t13 -32v-90q0 -18 -13 -33t-31 -15h-824q-18 0 -31 15t-13 33zM788 1492v88q0 20 13 33t31 13h824q18 0 31 -13t13 -33v-88q0 -20 -13 -34t-31 -14h-824q-18 0 -31 14t-13 34z" />
<glyph unicode="o" d="M184 956q0 124 70 213t178 119q-11 52 -11 100q0 96 43 178q50 90 141 150t205 60q250 0 370 -232q74 58 165 58t155 -50q76 -54 98 -127q14 -47 14 -92q0 -25 -4 -49q110 -34 172 -120q66 -84 66 -208t-98 -221t-232 -97h-194l-258 -250q-22 -20 -50 -20t-48 20 l-258 250h-192q-138 0 -235 97t-97 221zM658 782l356 -344l356 344h-180v346h-354v-346h-178z" />
<glyph unicode="p" d="M170 958q0 124 70 211t176 119q-11 51 -11 99q0 96 43 177q52 90 142 150t206 60q254 0 368 -232q76 58 167 58t155 -50q74 -54 97 -127q14 -45 14 -87q0 -26 -5 -50q112 -36 175 -120t63 -208t-96 -222t-234 -98h-252v-198q0 -28 -20 -49t-50 -21h-354q-30 0 -51 21 t-21 49v198h-250q-138 0 -235 98t-97 222zM644 784h180v-344h354v344h178q-178 170 -356 342z" />
<glyph unicode="q" d="M270 1528v2q-2 22 16 42t46 20h268q18 0 36 -14t24 -36l110 -402q0 2 -2 2q8 -18 0 -40l-4 -6q-17 -32 -42.5 -32t-41.5 6l-2 2q-28 16 -28 36l-94 354v-2q-3 6 -10 6h-214q-26 0 -44 18t-18 44zM376 1234q-10 38 -10 66.5t10 47.5q20 62 102 62h2q13 0 18 -14 q12 -40 19 -63q13 -43 -15 -43h-14q0 -10 4 -24l150 -538q2 -6 6 -6h20q15 0 18.5 -10t-1.5 -24t-5 -40v-4q-2 -10 0 -17q3 -12 -8 -23q-6 -2 -12 -2h-12q-92 0 -118 88q-2 2 -2 6zM714 655q0 15 6 33v2q9 31 44 66q32 34 86 34h6h2q60 0 95 -33t42 -59t7 -50v-24 q-6 -42 -46 -80t-99 -38t-99 38h-2q-34 38 -40 82v2q-2 12 -2 27zM770 1386q-2 5 -2 9q0 7 6 10q10 5 16 5h832q78 0 100 -62q10 -19 10 -47.5t-10 -66.5q-74 -270 -148 -538h-2q-30 -94 -124 -94h-12q-6 0 -12 2q-12 12 -9 21q8 24 0 50q-13 47 15 47h18q4 0 5 5t40 139 t115 400q2 15 2 24h-800q-16 0 -20 16zM1096 655q0 15 6 33v2q9 31 44 66q32 34 86 34h6h2h5q57 0 99 -40q24 -26 34 -60v-2q6 -18 6 -34v-30q-8 -46 -46 -82t-98 -36t-99 37t-43 81v4q-2 12 -2 27z" />
<glyph unicode="r" d="M544 1692q38 42 130 96l150 40q8 3 17 3q11 0 22 -6q19 -11 25 -33l112 -424q6 -22 -4 -42q-12 -18 -32 -22l-126 -36q-3 -24 -3 -48q0 -121 81 -264q74 -132 170 -198q40 -28 78 -38q2 2 104 92q16 12 38 11t34 -17l280 -324q13 -20 13 -36q0 -19 -17 -33 q-118 -99 -130 -99q-74 -38 -124 -48q-16 -2 -32 -2q-66 0 -134 40q-124 68 -253 214t-233 329t-165 367q-57 172 -57 292q0 119 56 186z" />
<glyph unicode="s" d="M170 610v878q0 90 90 90h1480h4q86 0 86 -90v-878q0 -92 -90 -92h-1480q-90 0 -90 92zM230 610q0 -32 30 -32h1480q30 0 30 32v878q0 30 -30 30h-1480q-30 0 -30 -30v-878zM276 635q0 11 8 19l512 462l-506 358q-14 10 -4 20q3 8 9 8q5 0 11 -4l694 -432l702 434q2 1 5 1 t7 -1q15 0 11.5 -12t-7.5 -14l-510 -358l522 -462q8 -8 8 -18t-8 -18t-18 -8t-18 6l-532 474l-162 -114q-4 0 -162 110l-518 -470q-6 -6 -17 -6t-19 7t-8 18z" />
<glyph unicode="t" d="M182 810q0 34 11 52t23 34l26 32l786 788l32 30q14 16 36 30t88 14h24l450 -24q59 -15 78 -34q25 -25 42 -86l24 -450v-30q0 -92 -74 -148l-788 -790q-68 -58 -108 -58t-65 14t-61 44l-464 466q-60 49 -60 116zM1356 1473q0 -57 40 -91q34 -34 86 -34t93 40t41 87.5 t-31 89t-70 41.5q-71 0 -115 -38t-44 -95z" />
<glyph unicode="u" d="M170 628v780q0 200 198 200h780l-80 -124h-700q-74 0 -74 -76v-780q0 -74 74 -74h1028q74 0 74 74v110q62 46 124 94v-204q0 -198 -198 -198h-1028q-198 0 -198 198zM644 804q12 192 148 344q170 196 484 216v302q276 -210 554 -420q-278 -214 -558 -426v270 q-47 13 -100 13q-131 0 -292 -82q-226 -115 -236 -217z" />
<glyph unicode="v" d="M196 456v1106q0 10 10 10h34q80 0 172 22t224 54h2q76 15 138 16q36 0 68 -6q86 -14 156 -70q72 56 158 70q38 6 76 6q50 0 102 -10q92 -18 228 -54h2q116 -28 194 -28h36q10 0 10 -10v-1108q0 -8 -6 -8l-4 -2l-36 2q-86 0 -214 30h-2q-134 34 -217 51q-49 10 -93 10 q-122 0 -202 -77l-24 -24q-4 -4 -8 -4t-6 4l-24 24q-62 60 -138 72q-28 4 -60 4q-53 0 -116 -12h-2l-196 -48q-130 -30 -216 -30l-34 -2l-8 2zM286 538q66 6 150 26l198 48h4q82 16 141 16q27 0 48 -3q69 -11 115 -37v930q-66 56 -172 56q-52 0 -114 -14h-2l-196 -48 q-98 -22 -172 -28v-946zM1060 588q69 39 168 39q62 0 136 -15q64 -12 200 -48h2q84 -20 150 -26v946q-74 6 -170 28h-2q-134 36 -217 53q-49 10 -92 10q-31 0 -59 -5h-2q-64 -10 -114 -52v-930z" />
<glyph unicode="w" d="M648 326q0 14 10 24t22 10v2h288v218q-112 10 -192 92q-96 94 -96 230v270q0 14 11 25t25 11t25 -11t11 -25v-270q0 -106 73 -178t173 -76h4q102 4 174 76t72 178v252h2v18q0 14 10 25t25 11t25 -11t10 -25v-270q0 -136 -88 -224t-200 -98v-218h288v-2q12 0 22 -10 t10 -24t-10 -24t-22 -12h-640q-12 2 -22 12t-10 24zM824 916v708q0 76 52 129t127 53t128 -53t53 -129v-708q0 -74 -52 -128q-54 -52 -129 -52t-127 53t-52 127z" />
<glyph unicode="x" d="M372 1607q0 21 14 35t34 14t36 -14l1160 -1160q14 -14 14 -35t-14 -36t-35 -15t-35 16l-1162 1160q-12 14 -12 35zM648 326q0 14 10 24t22 10v2h288v218q-112 10 -192 92q-96 94 -96 230v270q0 14 12 24l60 -60v-234q0 -106 73 -178t173 -76h4q98 4 166 70l52 -52 q-80 -76 -188 -86v-218h288v-2q12 0 22 -10t10 -24t-10 -24t-22 -12h-640q-12 2 -22 12t-10 24zM824 916v148l292 -292q-50 -36 -119 -36t-121 53t-52 127zM824 1344v280q0 76 52 129t127 53t128 -53t53 -129v-640zM1248 920v252q0 14 10 25t26 11t26 -11t10 -25v-270 q0 -26 -4 -52z" />
<glyph unicode="y" d="M340 765q0 193 138 333q304 302 608 606q98 100 233 100t243 -100q100 -102 100 -242t-100 -238l-544 -540q-58 -60 -141 -60t-142 58t-59 142t58 148l396 396l96 -96l-396 -396q-18 -22 -18 -51t18 -49q26 -16 46 -16t48 16l540 546q62 54 62 142t-62 142 q-54 58 -142 58t-142 -58l-608 -604q-100 -98 -100 -238t100 -238q108 -98 243 -98t235 98l446 446l18 12q8 -6 18 -12l62 -64q8 -8 14 -18q-230 -230 -460 -458q-138 -140 -335 -140t-335 140t-138 333z" />
<glyph unicode="z" d="M118 808q0 -198 198 -198h862q198 0 198 198v486q0 198 -198 198h-862q-198 0 -198 -198v-486zM1444 890l440 -286v882l-440 -284v-312z" />
<glyph unicode="|" d="M323 1030q-145 428 259 826q-182 -360 -71 -616t553 -206v378l652 -600l-652 -572v368q-596 -6 -741 422z" />
<glyph unicode="&#xa2;" d="M210 1044l2 12q796 856 1578 -12q-782 -858 -1580 0zM708 1050q0 -120 86 -207t207 -87t205 88q88 86 88 206t-86 206t-207 86t-209 -84q-84 -88 -84 -208zM870 1049q0 55 38 93t91 38t93 -38t40 -93t-42 -91q-38 -38 -91 -38t-91 37t-38 92z" />
<glyph unicode="&#xac;" d="M184 580v232q58 0 116 2q240 2 364 90q68 56 148 206v-2q108 208 226 286q174 128 510 134v150l270 -268q-134 -136 -270 -270v152q-244 -4 -376 -90q-76 -58 -170 -236t-194 -250q-172 -136 -506 -136h-118zM184 1292v236h118q403 -2 576 -204q-58 -74 -114 -180 l-20 -32q-42 62 -80 92q-124 88 -364 88h-116zM956 784q58 76 91 138t41 74q40 -58 84 -90q132 -86 376 -92v142l142 -144l128 -126l-270 -270v164q-413 7 -592 204z" />
<glyph unicode="&#xb4;" d="M256 1048q0 -312 220 -532t530 -220t530 220t220 532t-220 532t-530 220h-10q-304 -4 -522 -222t-218 -530zM332 1736q0 -82 38 -148q26 36 58 66q188 186 432 228q-83 138 -246 138q-118 0 -202 -80q-80 -86 -80 -204zM360 1047q0 269 188 459q190 190 458 190t457 -190 t189 -459t-190 -457q-188 -192 -456 -192t-457 190t-189 459zM894 1049q0 -47 33 -80t79 -33t78 32t36 72l268 78q29 8 24 32q-8 43 -42 32l-262 -76h-2q-27 40 -66 52v412q0 14 -10 24t-24 10t-24 -10t-10 -24v-412q-26 -8 -52 -35t-26 -74zM1152 1882q287 -50 488 -294 q42 64 42 148q0 118 -83 201t-202 83t-201 -80q-28 -28 -44 -58z" />
<glyph unicode="&#xf7;" d="M262 1370l396 134l134 -396q-90 46 -180 90q-56 -138 -3 -292t196 -225q171 -85 331 -27q38 12 72 32l58 -170q-36 -18 -74 -30l-42 -14q-212 -56 -424 48t-288 328t12 430zM734 1582q36 18 74 30h2q232 80 453 -29t296 -329t-1 -418q88 -42 178 -86l-396 -136l-134 396 l190 -94q46 132 -2 266q-56 164 -211 241t-317 21q-40 -14 -74 -34z" />
<glyph unicode="&#x2000;" horiz-adv-x="1024" />
<glyph unicode="&#x2001;" />
<glyph unicode="&#x2002;" horiz-adv-x="1024" />
<glyph unicode="&#x2003;" />
<glyph unicode="&#x2004;" horiz-adv-x="682" />
<glyph unicode="&#x2005;" horiz-adv-x="512" />
<glyph unicode="&#x2006;" horiz-adv-x="341" />
<glyph unicode="&#x2007;" horiz-adv-x="341" />
<glyph unicode="&#x2008;" horiz-adv-x="256" />
<glyph unicode="&#x2009;" horiz-adv-x="409" />
<glyph unicode="&#x200a;" horiz-adv-x="113" />
<glyph unicode="&#x201c;" d="M300 816v460q0 256 256 256h558v190l268 -268l-268 -268v186h-558q-96 0 -96 -96v-460q0 -96 96 -96h58l-36 -36q-18 -18 -18 -43t18 -43l38 -38h-60q-256 0 -256 256zM622 642l268 268v-190h554q96 0 96 96v460q0 96 -96 96h-60l42 40q16 18 16 43t-16 41l-36 36h54 q256 0 256 -256v-460q0 -256 -256 -256h-554v-186z" />
<glyph unicode="&#x201d;" d="M216 594v22q48 4 72 34q23 35 326 748h24q74 -164 146 -330q-32 -72 -62 -144l-126 306q-68 -166 -138 -330h254l-20 -48h-256l-56 -144l-8 -40q0 -30 24 -42q16 -6 58 -10v-22h-238zM512 428v36q70 8 106 52q34 46 122 248l384 902h36q230 -520 458 -1042 q46 -102 72 -128q28 -24 94 -32v-36h-468v36q80 8 104 16q22 12 22 52l-8 46l-98 250h-486l-86 -220l-12 -64q0 -46 30 -61t94 -19v-36h-364zM844 594q32 76 60 154h20l12 -28q28 -66 46 -82t62 -22v-22h-200zM880 902h424l-212 506z" />
<glyph unicode="&#x202f;" horiz-adv-x="409" />
<glyph unicode="&#x205f;" horiz-adv-x="512" />
<glyph unicode="&#xe000;" horiz-adv-x="1810" d="M0 0v1810h1810v-1810h-1810z" />
</font>
</defs>
</svg>
